<?xml version="1.0" encoding="UTF-8"?>
<svg id="Capa_1" data-name="Capa 1" xmlns="http://www.w3.org/2000/svg" viewBox="0 0 829.28 571.73">
  <defs>
    <style>
      .cls-1 {
        fill: #fff;
      }
    </style>
  </defs>
  <path d="m56.06,0c.43,8.54-.12,17.18.96,25.74,3.31,26.24,12.23,50.07,23.56,72.84,13.19,26.51,28.95,51.03,44.74,75.54,15.44,23.97,31.28,47.62,44.94,73.02,13.55,25.18,24.5,51.71,30.01,80.81,9.51,50.21,1.49,95.68-28.53,134.9-3.22,4.21-7.21,7.65-11.01,11.62-1.81-4.21.27-7.25.82-10.36,5.76-32.38-.4-62.39-13.55-91-11.11-24.16-26-45.2-41.55-65.73-19-25.08-40.53-47.34-60.34-71.5-13.19-16.09-25.92-32.65-34.64-52.72C-.37,155.93-3.05,127.57,3.45,98.25,11.68,61.13,27.05,28.6,52.03,2.58,53.07,1.5,53.87-.08,56.06,0Z"/>
  <path d="m117.19,571.73c.38-4.37.39-6.72.82-8.96,2.97-15.39.16-29.91-4.98-44.06-6.94-19.1-17.85-35.14-29.63-50.53-11.58-15.13-24.59-28.65-36.67-43.21-8.66-10.43-16.77-21.38-22.48-34.35-9.12-20.7-8.73-42.08-2.26-63.34,5.53-18.16,13.85-34.62,26.32-47.92,1.04-1.11,1.86-2.67,3.9-2.51-1.45,34.67,14.13,61.85,30.28,88.66,13.74,22.81,29.44,44.05,41.9,67.89,8.91,17.04,15.87,35.05,18.55,54.84,4.15,30.68-2.34,57.68-21.8,79.94-.79.91-1.77,1.6-3.94,3.54Z"/>
  <path d="m660.12,290.34h-22.36c-.7-3.9-1.48-7.85.47-10.82,3.17-4.81,2.71-10.04,2.72-15.34.03-16.42.02-32.85,0-49.27,0-3.96.23-7.74-2.42-11.29-2.61-3.5-1.63-8.09-1.21-12.38,1.26-.38,2.07-.8,2.89-.84,14.13-.84,14.07-.8,20.57,13.41,4.45,9.73,9.09,19.33,13.53,28.73,3.23-.5,3.67-3.13,4.66-5.03,4.94-9.48,10.18-18.79,14.52-28.62,3.13-7.08,7.39-9.82,14.01-8.59,1.7.32,3.45.28,5.37.41,1.66,4.44,1.91,9.17-.63,12.45-3.18,4.12-2.87,8.52-2.87,13.14-.02,16.09-.02,32.18,0,48.27,0,4.64-.22,9.1,2.61,13.35,2.04,3.06,2.7,7.38,1,12.07-7.21,1.71-14.66.28-22.55.83-.87-5.35-1.44-9.79,1.39-13.91.92-1.34,1.6-2.79,1.6-4.56,0-11.87,0-23.73-1.34-35.91-3.55,6.43-7.03,12.92-10.68,19.29-4.27,7.45-8.21,7.38-12.4-.3-3.52-6.44-6.81-13.04-11.88-19.14,0,12.06-.13,24.12.12,36.18.04,2.09,1.93,4.05,2.58,6.23,1.03,3.45,2.21,6.98.29,11.64Z"/>
  <path d="m546.04,290.49c-.43-5.69-.96-10.3,1.77-14.51,1.67-2.57,1.14-5.79,1.15-8.78.02-17.41,0-34.82.02-52.23,0-3.7.05-7.39-1.74-10.69-2.16-4-1.74-8.23-.94-13.22,10.46,0,20.91-.68,31.25.22,8.2.71,13.13,7.15,13.83,16.58.78,10.55,2.2,21.35-3.25,31.9,3.79,3.89,3.81,9.51,3.89,15.23.12,8.86-1.55,18.02,3.96,25.99,1.57,2.28.7,5.79.44,8.86-.93.41-1.7,1.02-2.5,1.06-15.5.86-17.65-1.53-17.67-19.55,0-3.68.09-7.37-.03-11.05-.31-9.28-1.67-10.43-11.09-8.76.62,9.21-2.56,18.71,2.86,27.75,1.79,2.98.62,7.07.46,11.19h-22.41Z"/>
  <path d="m387.88,240.52c0,9.39.13,18.79-.03,28.18-.23,12.98-6.3,20.71-17.49,22.07-6.69.81-13.27.72-19.65-3.08-5.18-3.09-8.14-7.48-9.03-13.81-.46-3.29-.6-6.67-.61-10.01-.06-15.77.53-31.57-.16-47.29-1.02-23.33,12.91-28.32,28.43-27.31,2.01.13,4.04.81,5.98,1.53,7.8,2.87,12.15,9.03,12.41,18.55.29,10.39.07,20.8.07,31.19.02,0,.05,0,.07,0Z"/>
  <path d="m770.63,240.59c0,9.39.11,18.78-.03,28.16-.18,12.04-3.99,18.27-13.96,21.22-9.04,2.67-17.95,1.77-26.1-4.3-3.19-2.37-4.96-5.69-5.55-9.76-.53-3.62-.75-7.33-.77-11-.08-16.09-.09-32.18-.02-48.27.1-20.33,10.6-30.57,28.08-27.46,13.77,2.46,18.75,10.61,18.39,24.27-.24,9.04-.04,18.1-.05,27.15Z"/>
  <path d="m489.13,290.55c-1.42-4.7-1.33-8.61.71-11.52,3.06-4.36,3-9.14,2.98-14.17-.06-17.06-.06-34.11,0-51.17.01-4.09-.2-7.88-2.73-11.24-2.46-3.26-2.57-7.19-1.08-11.95,11.21,0,22.52-.37,33.8.14,6.55.29,10.63,5.55,12.26,12.44,2.72,11.49,2.35,23.24-.05,34.72-1.61,7.69-7.67,12.34-14.88,13.15-3.41.39-7.01-.92-11.17,1.95.7,8.45-2.68,17.56,2.55,26.29,1.82,3.04,1.3,7.01.31,11.21-7.39.94-14.84.63-22.69.14Z"/>
  <path d="m827.55,219.43c-2.76,1.7-5.14,1.13-7.42,1.08-4.29-.1-7.29-2.05-7.68-7.56-.11-1.62-.43-3.4-1.15-4.74-1.51-2.81-3.87-4.07-6.76-3.18-2.48.77-3.92,2.62-4.18,5.71-.64,7.7-.24,14.52,7.06,18.56,4.69,2.59,8.94,6.31,13.22,9.77,5.89,4.77,8.99,11.26,8.62,19.73-.13,3.01.03,6.04-.02,9.06-.21,12.69-3.62,18.55-14.19,22.03-8.03,2.64-16.31,2.53-23.74-2.67-8.48-5.94-9.6-15.18-7.88-25.44,2.01-2.22,4.47-1.36,6.69-1.33,6.4.09,6.71.46,8.45,7.4,1.51,6.01,5.23,8.57,10.23,7.12,1.85-.54,3.11-1.78,3.8-3.76,2.77-8.02-.22-18.94-6.7-23.81-3.42-2.56-7.12-4.62-10.62-7.02-6.98-4.79-11.39-11.33-10.89-21.25.19-3.68.04-7.38.06-11.07.05-7.57,3.62-12.47,9.25-15.64,7.49-4.21,15.32-4.29,22.94-.99,6.06,2.62,10.29,7.73,10.89,15.6.3,3.96.05,7.97.05,12.41Z"/>
  <path d="m444.46,219.05c-2.28,2.09-4.41,1.53-6.38,1.46-5.8-.22-7-1.2-8.39-7.72-.65-3.05-1.17-5.8-3.96-7.24-2.9-1.5-6.21-.52-7.56,2.41-2.53,5.5-.37,16.15,4.3,19.86,3.83,3.04,7.87,5.74,11.88,8.46,8.24,5.58,12.81,13.4,11.95,24.76-.17,2.33-.14,4.7,0,7.03.72,12.19-5.12,18.57-14.41,22.02-5.85,2.17-12.18,2.05-18.11-.25-11.45-4.43-15.86-12.82-12.82-28.38,1.4-1.6,3.25-1.04,4.92-1.04,7.31.01,8.19.3,9.82,8.15,1.06,5.09,3.49,6.5,7.36,6.58,4.92.1,6.48-1.86,7.16-7.65,1.25-10.63-1.92-18.28-10.73-22.49-.54-.26-1.08-.52-1.58-.86-17.25-11.5-17.04-15.24-16.09-38.8.1-2.42,1.04-4.48,2.26-6.42,8.28-13.24,30.27-13.15,38.1.39,3.57,6.17,2.83,13.25,2.28,19.74Z"/>
  <path d="m252.4,88.66v396.51c-3.54,1.36-6.29,1.89-6.36-3.91-.03-2.35-.02-4.7-.02-7.04,0-124.8,0-249.6,0-374.4,0-2.35.05-4.7.02-7.04-.07-4.89,2.27-5.49,6.37-4.12Z"/>
  <path d="m304.91,274.76c6.04.28,10.72,1.71,14.54-4.07,2.28-3.45,6.23-2.96,9.57-2.02,1.17,1.01,1.53,2.23,1.61,3.61,1.05,18.2.82,18.49-15.06,18.47-9.34,0-18.68-.05-28.02-.11-.55,0-1.1-.33-2.17-.68-1.66-4.27-1.6-9.04.78-12.93,2.26-3.7,2.21-7.46,2.22-11.43.02-14.4.09-28.8-.03-43.19-.06-7.54,1.25-15.28-3.24-22.21-1.41-2.18-1.01-5.77.14-9.36,7.28-1.1,14.76-.42,22.53-.31,1.69,4.03,1.46,8.01-.48,11.43-2.23,3.93-2.42,8.05-2.41,12.44.05,19.72.02,39.45.02,60.34Z"/>
  <path d="m627.58,290.34h-22.45c-1.97-4.37-1.21-8.72.75-12.37,1.97-3.68,2.48-7.38,2.47-11.46-.03-17.78-.02-35.56,0-53.34,0-3.37-.07-6.56-2.12-9.47-2.55-3.62-2.75-7.89-1.36-12.81h22.82c.95,3.71,1.16,7.52-.74,10.56-2.83,4.52-2.58,9.43-2.58,14.44,0,14.76-.03,29.52.02,44.28.02,6.95-.89,14.01,3.13,20.31,1.55,2.43.91,5.82.06,9.85Z"/>
  <path d="m630.01,342.77v43.37c-7.5,2.48-7.54,2.51-11.31-3.9-3.4-5.77-6.71-11.6-10.77-18.64-1.78,8.29-.04,15.53-1.35,22.59-2.56,2.47-5.29,1.85-8.66.49v-42.69c7.06-3.11,7.49-2.94,11.29,3.29,3.78,6.2,6.55,13.23,12.07,20.07v-22.91c2.62-3.16,5.17-2.52,8.73-1.68Z"/>
  <path d="m310.2,372.03c2.1,5,3.96,9.45,6.02,14.36-3.31,2.16-6.44,1.15-8.97,1.25-5.61-3.07-2.76-14.82-11.67-13.82-2.01,4.25,0,8.94-1.7,12.82-2.98,1.85-5.71,1.05-8.93.56v-44.26c8.22-1.77,16.51-1.83,24.45,1.56,6.3,2.69,8.84,13.42,5.38,20.64-1.1,2.29-2.77,4.2-4.59,6.89Z"/>
  <path d="m538.78,370.53c2.55,6.21,4.52,10.99,6.52,15.84q-9.6,2.52-13.42-6.54c-1.5-3.57-2.48-8.01-7.44-5.56-2.08,3.86.25,8.64-1.92,12.68-2.46,1.25-4.94,1.1-7.93-.02v-43.88c6.45-1.54,12.47-1.53,18.51-.16,12.39,2.82,16.34,14.74,8.54,25.91-.68.97-2.07,1.28-2.85,1.73Z"/>
  <path d="m323.02,342.26h28c2.38,2.38,1.77,5.23.99,8.28-.81.37-1.59,1.01-2.39,1.04-4.09.15-8.18.18-12.27.17-4.28-.01-4.72,2.77-3.79,6.83,3.46,2.01,7.43.23,11.22,1.52,1.49,2.84.68,5.64.49,8.25-3.93,2.44-8.03-.05-11.58,2.21-1.23,4.28-.71,7.1,4.03,7,4.62-.1,9.24-.02,13.43-.02,1.94,3.37,1.38,5.95.66,9.7-8.98.67-18.2.19-28.62.3-.36-14.92-.11-29.49-.17-45.3Z"/>
  <path d="m474,342.56c3.89-1.39,6.65-1.57,10.18.12,0,4.12,0,8.41,0,12.7,0,2.68-.02,5.37,0,8.05.1,9.64,2.27,14.03,6.81,13.86,4.12-.15,6.18-4.52,6.24-13.43.05-6.99,0-13.98,0-20.65,3.39-2.49,6.18-1.85,9.47-1.07,1.28,9.92.96,19.94.27,29.84-.63,9-7.01,15.12-14.73,15.68-8.42.61-14.92-4.35-17.08-13.65-2.36-10.19-.66-20.6-1.18-31.44Z"/>
  <path d="m468.58,387.11c-5.4.8-9.63,2.25-12.58-4.37-1.62-3.63-12.55-3.13-15.15-.13q-4.73,5.47-11.84,4.03c4.41-13.1,8.83-26.1,13.16-39.14,1.31-3.96,3.6-5.51,7.32-5.57,3.77-.06,5.01,2.49,6.08,5.76,4.19,12.75,8.4,25.49,13,39.42Z"/>
  <path d="m591.78,387.28c-5.58.46-9.96,2.24-12.65-4.78-1.33-3.46-13.43-3.25-15.03.32-2.74,6.13-6.46,5.46-11.79,3.83,3.91-11.75,7.72-23.19,11.53-34.63.62-1.87,1.41-3.67,1.92-5.57,1.1-4.05,3.78-4.4,6.91-4.51,3.23-.12,4.77,1.82,5.78,4.86,4.31,13.06,8.61,26.13,13.33,40.47Z"/>
  <path d="m362.39,371.64c5.18,4.12,10.38,8.73,17.18,5.01.96-4.49-1.8-5.5-4.11-6.7-2.64-1.37-5.48-2.26-8.08-3.72-4.34-2.44-6.49-6.39-5.95-12.18.53-5.61,3-9.36,7.54-11.2,7.43-3.01,14.25-1.28,20.6,3.48.41,3.36.68,6.28-1.88,9.11-4.78-1.43-9.38-7.23-15.07-2.74-.9,3.57,1.21,5.02,3.35,6.11,2.39,1.21,5.03,1.76,7.41,2.98,5.48,2.82,8.31,8.47,7.43,14.34-.89,5.97-5.05,10.58-10.73,11.53-5.3.89-10.43.23-15.32-2.57-6.26-3.58-6.53-4.73-2.37-13.44Z"/>
  <path d="m645.91,353.86c-2.48-2.41-5.49-.73-7.84-2.55-1.58-2.7-1-5.46-.11-8.64,8.83-1.22,17.47-.64,25.71-.42,3.05,2.8,1.56,5.78,1.71,8.12-2.58,3.28-6.21.62-9.01,4.16v31.77c-3.22,2.23-6.02,1.6-9.21.81-1.9-11.07.41-22.47-1.24-33.25Z"/>
  <path d="m416.19,386.56c-2.95,1.74-5.45,1.36-8.82.42v-32.55c-3.22-3.29-6.66-.96-9.06-3.28-1.32-8.6-1.19-8.97,5.37-9.12,7.22-.16,14.44-.04,21.06-.04,2.14,3.4,1.74,5.96,1.24,8.52-2.13,3.19-5.73.64-8.75,3.53-1.5,10.31.52,21.67-1.04,32.51Z"/>
  <path class="cls-1" d="m565.31,207.08c10.9-2.27,11.37,2.29,11.7,9.9.1,2.32.11,4.66.01,6.98-.38,9.56-1.7,10.76-11.31,9.92-1.47-8.67-.76-17.46-.4-26.8Z"/>
  <path class="cls-1" d="m357.83,240.03c0-9.05-.13-18.11.05-27.16.11-5.62,1.9-7.88,5.75-8.3,4.18-.46,6.86,2.04,7.8,7.4.23,1.3.24,2.66.24,4,.02,16.43.09,32.86-.03,49.29-.05,7.25-1.64,9.48-6.22,10.04-4.73.58-7.3-1.5-7.46-7.11-.28-9.38-.08-18.77-.08-28.16-.02,0-.03,0-.05,0Z"/>
  <path class="cls-1" d="m740.63,239.91c0-9.04-.15-18.08.06-27.12.12-5.05,2.54-7.89,6.12-8.21,3.58-.32,6.52,2.29,7.55,6.77.15.64.21,1.32.25,1.98.06,1,.08,2.01.08,3.01,0,16.07.02,32.14,0,48.21,0,4.06-.02,8.47-4.03,10.15-5.21,2.19-10.57-.58-10.17-7.68.51-9,.12-18.07.12-27.11h.02Z"/>
  <path class="cls-1" d="m509.32,236.02c-1.05-9.37-.62-18.86-.23-28.23,8.69-2.86,11.27-1.12,11.73,7.85.2,3.97.23,8-.11,11.95-.74,8.51-2.71,9.93-11.39,8.43Z"/>
  <path class="cls-1" d="m295.42,363.57c-1.05-4.16-.95-7.08-.29-10.2,2.92-2.51,5.91-1.33,8.86.11,1.69.83,2.83,2.3,2.93,4.51.13,2.83-1.59,4.45-3.52,4.97-2.44.66-5.06.43-7.99.61Z"/>
  <path class="cls-1" d="m524.42,362.84c-1.16-3.6-1.24-6.49-.05-9.58,2.66-2.02,5.4-1.36,8.25-.22,2.35.94,3.1,2.9,3.07,5.42-.02,2.35-1.43,3.52-3.18,4.24-2.54,1.05-5.11,1.21-8.09.14Z"/>
  <path class="cls-1" d="m452.71,369.92c-2.74,2.54-5.21,1.26-8.12,1.31.4-4.87,1.77-8.69,3.22-12.66,3.99,2.91,2.9,7.95,4.9,11.35Z"/>
  <path class="cls-1" d="m571.32,357.51c2.82,4.93,3.82,8.64,4.34,12.61-2.45,2.15-4.9,1.52-7.43.73-.33-4.56,1.83-8.18,3.09-13.34Z"/>
</svg>